<svg width="30" height="28" viewBox="0 0 30 28" fill="none" xmlns="http://www.w3.org/2000/svg">
<path d="M7.37682 11.6753H0.924303C0.526978 11.6753 0.288383 12.1164 0.505815 12.4489L3.63986 17.2423C3.8341 17.5394 4.2674 17.5451 4.46944 17.2533L7.78792 12.4599C8.0175 12.1283 7.78015 11.6753 7.37682 11.6753Z" fill="#284F57"/>
<mask id="path-2-outside-1" maskUnits="userSpaceOnUse" x="8.5" y="9" width="16" height="10" fill="black">
<rect fill="white" x="8.5" y="9" width="16" height="10"/>
<path d="M10.3007 17.8877H14.8059C15.2457 17.8877 15.5107 17.6257 15.5107 17.246C15.5107 16.8556 15.2457 16.6043 14.8059 16.6043H11.7385V16.5722L13.4977 14.9679C14.8284 13.7754 15.3134 13.1872 15.3134 12.246C15.3134 10.9198 14.1518 10 12.4264 10C10.8871 10 9.86651 10.7968 9.59022 11.6524C9.55075 11.7647 9.52819 11.877 9.52819 12C9.52819 12.4011 9.79884 12.6578 10.2556 12.6578C10.6221 12.6578 10.8194 12.508 11.0111 12.1872C11.3043 11.5668 11.7554 11.2567 12.4095 11.2567C13.1369 11.2567 13.6556 11.7112 13.6556 12.3476C13.6556 12.9037 13.3962 13.2781 12.3926 14.1925L9.968 16.3904C9.62405 16.6898 9.5 16.893 9.5 17.1979C9.5 17.6043 9.76501 17.8877 10.3007 17.8877Z"/>
<path d="M21.5265 18C21.9945 18 22.3385 17.7273 22.3385 17.2139V16.4706H22.8008C23.2463 16.4706 23.5 16.2086 23.5 15.8289C23.5 15.4492 23.2519 15.1818 22.8008 15.1818H22.3385V11.2193C22.3385 10.4973 21.7972 10.0535 20.9345 10.0535C20.2466 10.0535 19.8349 10.3209 19.2711 11.139C18.3858 12.385 17.5739 13.5615 17.0157 14.5134C16.7619 14.9358 16.6604 15.2353 16.6604 15.5668C16.6604 16.107 17.072 16.4706 17.6866 16.4706H20.7202V17.2139C20.7202 17.7273 21.0585 18 21.5265 18ZM20.754 15.2246H18.149V15.1818C18.8087 14.016 19.5586 12.9305 20.7202 11.3422H20.754V15.2246Z"/>
</mask>
<path d="M10.3007 17.8877H14.8059C15.2457 17.8877 15.5107 17.6257 15.5107 17.246C15.5107 16.8556 15.2457 16.6043 14.8059 16.6043H11.7385V16.5722L13.4977 14.9679C14.8284 13.7754 15.3134 13.1872 15.3134 12.246C15.3134 10.9198 14.1518 10 12.4264 10C10.8871 10 9.86651 10.7968 9.59022 11.6524C9.55075 11.7647 9.52819 11.877 9.52819 12C9.52819 12.4011 9.79884 12.6578 10.2556 12.6578C10.6221 12.6578 10.8194 12.508 11.0111 12.1872C11.3043 11.5668 11.7554 11.2567 12.4095 11.2567C13.1369 11.2567 13.6556 11.7112 13.6556 12.3476C13.6556 12.9037 13.3962 13.2781 12.3926 14.1925L9.968 16.3904C9.62405 16.6898 9.5 16.893 9.5 17.1979C9.5 17.6043 9.76501 17.8877 10.3007 17.8877Z" fill="#284F57"/>
<path d="M21.5265 18C21.9945 18 22.3385 17.7273 22.3385 17.2139V16.4706H22.8008C23.2463 16.4706 23.5 16.2086 23.5 15.8289C23.5 15.4492 23.2519 15.1818 22.8008 15.1818H22.3385V11.2193C22.3385 10.4973 21.7972 10.0535 20.9345 10.0535C20.2466 10.0535 19.8349 10.3209 19.2711 11.139C18.3858 12.385 17.5739 13.5615 17.0157 14.5134C16.7619 14.9358 16.6604 15.2353 16.6604 15.5668C16.6604 16.107 17.072 16.4706 17.6866 16.4706H20.7202V17.2139C20.7202 17.7273 21.0585 18 21.5265 18ZM20.754 15.2246H18.149V15.1818C18.8087 14.016 19.5586 12.9305 20.7202 11.3422H20.754V15.2246Z" fill="#284F57"/>
<path d="M10.3007 17.8877H14.8059C15.2457 17.8877 15.5107 17.6257 15.5107 17.246C15.5107 16.8556 15.2457 16.6043 14.8059 16.6043H11.7385V16.5722L13.4977 14.9679C14.8284 13.7754 15.3134 13.1872 15.3134 12.246C15.3134 10.9198 14.1518 10 12.4264 10C10.8871 10 9.86651 10.7968 9.59022 11.6524C9.55075 11.7647 9.52819 11.877 9.52819 12C9.52819 12.4011 9.79884 12.6578 10.2556 12.6578C10.6221 12.6578 10.8194 12.508 11.0111 12.1872C11.3043 11.5668 11.7554 11.2567 12.4095 11.2567C13.1369 11.2567 13.6556 11.7112 13.6556 12.3476C13.6556 12.9037 13.3962 13.2781 12.3926 14.1925L9.968 16.3904C9.62405 16.6898 9.5 16.893 9.5 17.1979C9.5 17.6043 9.76501 17.8877 10.3007 17.8877Z" stroke="#284F57" stroke-width="0.4" mask="url(#path-2-outside-1)"/>
<path d="M21.5265 18C21.9945 18 22.3385 17.7273 22.3385 17.2139V16.4706H22.8008C23.2463 16.4706 23.5 16.2086 23.5 15.8289C23.5 15.4492 23.2519 15.1818 22.8008 15.1818H22.3385V11.2193C22.3385 10.4973 21.7972 10.0535 20.9345 10.0535C20.2466 10.0535 19.8349 10.3209 19.2711 11.139C18.3858 12.385 17.5739 13.5615 17.0157 14.5134C16.7619 14.9358 16.6604 15.2353 16.6604 15.5668C16.6604 16.107 17.072 16.4706 17.6866 16.4706H20.7202V17.2139C20.7202 17.7273 21.0585 18 21.5265 18ZM20.754 15.2246H18.149V15.1818C18.8087 14.016 19.5586 12.9305 20.7202 11.3422H20.754V15.2246Z" stroke="#284F57" stroke-width="0.4" mask="url(#path-2-outside-1)"/>
<path d="M5.23643 21.9014C5.23643 21.2663 4.72155 20.7514 4.08643 20.7514C3.4513 20.7514 2.93643 21.2663 2.93643 21.9014H5.23643ZM7.08643 3.15H25.0864V0.85H7.08643V3.15ZM26.9364 5V23H29.2364V5H26.9364ZM25.0864 24.85H7.08643V27.15H25.0864V24.85ZM5.23643 23V21.9014H2.93643V23H5.23643ZM5.23643 13.4739V5H2.93643V13.4739H5.23643ZM7.08643 24.85C6.0647 24.85 5.23643 24.0217 5.23643 23H2.93643C2.93643 25.292 4.79444 27.15 7.08643 27.15V24.85ZM26.9364 23C26.9364 24.0217 26.1082 24.85 25.0864 24.85V27.15C27.3784 27.15 29.2364 25.292 29.2364 23H26.9364ZM25.0864 3.15C26.1082 3.15 26.9364 3.97827 26.9364 5H29.2364C29.2364 2.70802 27.3784 0.85 25.0864 0.85V3.15ZM7.08643 0.85C4.79444 0.85 2.93643 2.70802 2.93643 5H5.23643C5.23643 3.97827 6.0647 3.15 7.08643 3.15V0.85Z" fill="#284F57"/>
</svg>
